<?xml version="1.0" encoding="UTF-8"?>
<!-- Generator: Adobe Illustrator 22.0.0, SVG Export Plug-In . SVG Version: 6.00 Build 0)  -->
<svg version="1.1" id="Layer_1" xmlns="http://www.w3.org/2000/svg" xmlns:xlink="http://www.w3.org/1999/xlink" x="0px" y="0px" viewBox="0 0 300 200" style="enable-background:new 0 0 300 200;" xml:space="preserve">
<style type="text/css">
	.st0{fill:#2A3238;}
</style>
<g>
	<path class="st0" d="M105.9,66.3L68.7,44.2c-2.2-1.3-4.7-2-7.2-2s-5,0.7-7.2,2L17.1,66.3c-4.4,2.6-7.2,7.5-7.2,12.8v44.2   c0,5.3,2.7,10.1,7.2,12.8l37.2,22.1c2.2,1.3,4.7,2,7.2,2c2.5,0,5-0.7,7.2-2l37.2-22.1c4.4-2.6,7.2-7.5,7.2-12.8V79   C113.1,73.8,110.4,68.9,105.9,66.3z M77.1,135.3l0.1,3.2c0,0.4-0.2,0.8-0.5,1l-1.9,1.1c-0.3,0.2-0.5,0-0.6-0.4l0-3.1   c-1.6,0.7-3.2,0.8-4.3,0.4c-0.2-0.1-0.3-0.4-0.2-0.7l0.7-2.9c0.1-0.2,0.2-0.5,0.3-0.6c0.1-0.1,0.1-0.1,0.2-0.1   c0.1-0.1,0.2-0.1,0.3,0c1.1,0.4,2.6,0.2,3.9-0.5c1.8-0.9,2.9-2.7,2.9-4.5c0-1.6-0.9-2.3-3-2.3c-2.7,0-5.2-0.5-5.3-4.5   c0-3.3,1.7-6.7,4.4-8.8l0-3.2c0-0.4,0.2-0.8,0.5-1l1.8-1.2c0.3-0.2,0.5,0,0.6,0.4l0,3.2c1.3-0.5,2.5-0.7,3.6-0.4   c0.2,0.1,0.3,0.4,0.2,0.7l-0.7,2.8c-0.1,0.2-0.2,0.4-0.3,0.6c-0.1,0.1-0.1,0.1-0.2,0.1c-0.1,0-0.2,0.1-0.3,0   c-0.5-0.1-1.6-0.4-3.4,0.6c-1.9,1-2.6,2.6-2.5,3.8c0,1.5,0.8,1.9,3.3,1.9c3.4,0.1,4.9,1.6,5,5C81.7,129.4,79.9,133,77.1,135.3z    M96.6,129.9c0,0.3,0,0.6-0.3,0.7l-9.4,5.7c-0.2,0.1-0.4,0-0.4-0.3v-2.4c0-0.3,0.2-0.5,0.4-0.6l9.3-5.5c0.2-0.1,0.4,0,0.4,0.3   V129.9z M103.1,75.6L67.9,97.3c-4.4,2.6-7.6,5.4-7.6,10.7v43.4c0,3.2,1.3,5.2,3.2,5.8c-0.6,0.1-1.3,0.2-2,0.2   c-2.1,0-4.1-0.6-5.9-1.6l-37.2-22.1c-3.6-2.2-5.9-6.2-5.9-10.5V79c0-4.3,2.3-8.4,5.9-10.5l37.2-22.1c1.8-1.1,3.8-1.6,5.9-1.6   s4.1,0.6,5.9,1.6l37.2,22.1c3.1,1.8,5.1,5,5.7,8.5C109.1,74.4,106.3,73.7,103.1,75.6z"/>
	<path class="st0" d="M161.2,102.8c-0.9-1.1-2-2.1-3.3-2.9c-0.2-0.1-0.3-0.2-0.5-0.3c1-0.7,1.9-1.5,2.7-2.4c0.8-1,1.5-2.1,2-3.3   c0.5-1.2,0.7-2.6,0.8-4c0-2.5-0.5-4.7-1.6-6.6c-1.1-1.8-2.5-3.4-4.3-4.5c-1.7-1.1-3.7-2-5.9-2.5c-2.1-0.5-4.3-0.8-6.5-0.8h-14.9   c-1,0-1.9,0.8-1.9,1.8v47.6c0,1,0.8,1.8,1.9,1.8h16.1c2.3,0,4.6-0.4,6.8-1c2.2-0.7,4.2-1.7,5.9-2.9c1.7-1.3,3.2-2.9,4.2-4.9   c1.1-2,1.6-4.2,1.5-6.7c0-1.6-0.3-3.1-0.8-4.5C162.9,105.2,162.2,104,161.2,102.8z M138,84.3h6.8c1.1,0,2.2,0.2,3.2,0.4   c1,0.2,1.8,0.6,2.5,1.1c0.7,0.4,1.2,1,1.6,1.7c0.4,0.7,0.6,1.5,0.6,2.5c0,0.9-0.2,1.7-0.6,2.4c-0.4,0.7-1,1.3-1.7,1.8   c-0.7,0.5-1.6,0.9-2.5,1.2c-1,0.3-2,0.4-3,0.5h-7V84.3z M153.4,114c-0.4,0.8-1,1.5-1.7,2.1c-0.7,0.6-1.6,1-2.6,1.4   c-1,0.3-2.1,0.5-3.2,0.5H138v-13.6h8.2c1.2,0,2.2,0.2,3.2,0.6c0.9,0.3,1.8,0.8,2.4,1.3c0.7,0.6,1.2,1.2,1.6,2.1   c0.4,0.8,0.6,1.8,0.5,2.9C154,112.3,153.8,113.2,153.4,114z"/>
	<path class="st0" d="M192.2,76.8c-0.2-0.7-1-1.2-1.8-1.2h-5.3c-0.8,0-1.5,0.5-1.8,1.2l-16.2,47.6c-0.2,0.5-0.1,1.1,0.3,1.6   c0.4,0.5,0.9,0.7,1.5,0.7h6.4c0.8,0,1.6-0.5,1.8-1.3l3.6-11.1h13.9l3.6,11.1c0.2,0.8,1,1.3,1.8,1.3h6.3c0.6,0,1.2-0.3,1.5-0.7   c0.4-0.5,0.5-1.1,0.3-1.6L192.2,76.8z M183.5,105.5l4.1-12.8l4.1,12.8H183.5z"/>
	<path class="st0" d="M246.3,104.7c-0.9-1.1-1.9-2.1-3-2.9c-1.1-0.8-2.3-1.6-3.5-2.2c-1.2-0.6-2.5-1.2-3.9-1.7   c-1.3-0.5-2.6-0.9-3.9-1.3c-1.1-0.3-2.3-0.7-3.5-1.1c-1.1-0.4-2.2-0.9-3.2-1.5c-0.9-0.5-1.6-1.2-2.2-1.9c-0.5-0.7-0.7-1.5-0.8-2.4   c0-1,0.2-1.8,0.6-2.5c0.4-0.7,1-1.3,1.6-1.8c0.7-0.5,1.6-0.9,2.5-1.2c2.2-0.6,4.6-0.5,6.4,0.1c1,0.4,1.8,0.9,2.5,1.5   c0.7,0.6,1.3,1.4,1.7,2.3c0.4,1,0.8,2,0.9,3.2c0.1,0.9,0.9,1.6,1.9,1.6h6.5c0.5,0,1-0.2,1.3-0.5c0.4-0.3,0.5-0.8,0.5-1.3   c-0.1-2.4-0.6-4.7-1.7-6.7c-1.1-2-2.5-3.7-4.2-5.1c-1.7-1.4-3.7-2.5-5.9-3.2c-4.2-1.4-8.9-1.5-13.4-0.2c-2.2,0.6-4.1,1.6-5.8,2.8   c-1.7,1.3-3.2,2.8-4.2,4.6c-1.1,1.9-1.7,4-1.7,6.4c0,2.4,0.6,4.5,1.7,6.3c1.1,1.7,2.5,3.2,4.1,4.4c1.6,1.2,3.4,2.2,5.4,3   c1.9,0.8,3.7,1.5,5.6,2c1.2,0.4,2.4,0.8,3.7,1.2c1.2,0.4,2.3,0.9,3.2,1.5c0.9,0.6,1.6,1.2,2.2,2c0.5,0.7,0.7,1.6,0.7,2.7   c0,1-0.2,1.8-0.6,2.5c-0.5,0.7-1,1.3-1.8,1.8c-0.8,0.5-1.6,0.9-2.6,1.1c-2.4,0.6-4.9,0.5-6.9-0.1c-1.1-0.3-2-0.8-2.9-1.5   c-0.8-0.6-1.5-1.4-2-2.4c-0.5-0.9-0.9-2.1-1.1-3.3c-0.1-0.9-0.9-1.6-1.9-1.6h-6.5c-0.5,0-1,0.2-1.4,0.5c-0.4,0.3-0.5,0.8-0.5,1.3   c0.1,2.6,0.7,4.9,1.9,6.9c1.2,2,2.7,3.7,4.6,5.1c1.8,1.4,4,2.4,6.3,3.1c2.3,0.7,4.7,1.1,7.1,1.1c2.2,0,4.3-0.3,6.5-0.9   c2.2-0.6,4.2-1.5,5.9-2.6c1.8-1.2,3.3-2.7,4.4-4.5c1.2-1.9,1.8-4.1,1.8-6.5c0-1.6-0.2-3.1-0.7-4.5   C247.9,107,247.2,105.8,246.3,104.7z"/>
	<path class="st0" d="M288.1,75.5h-6c-1,0-1.9,0.8-1.9,1.8V96h-16.8V77.3c0-1-0.8-1.8-1.9-1.8h-6c-1,0-1.9,0.8-1.9,1.8v47.6   c0,1,0.8,1.8,1.9,1.8h6c1,0,1.9-0.8,1.9-1.8v-20.2h16.8v20.2c0,1,0.8,1.8,1.9,1.8h6c1,0,1.9-0.8,1.9-1.8V77.3   C289.9,76.3,289.1,75.5,288.1,75.5z"/>
	<polygon class="st0" points="127.8,135 130.1,135 130.1,141.1 131.3,141.1 131.3,135 133.6,135 133.6,134 127.8,134  "/>
	<polygon class="st0" points="139.4,137 136.9,137 136.9,134 135.7,134 135.7,141.1 136.9,141.1 136.9,137.9 139.4,137.9    139.4,141.1 140.6,141.1 140.6,134 139.4,134  "/>
	<polygon class="st0" points="144.6,137.9 147.6,137.9 147.6,137 144.6,137 144.6,135 148.1,135 148.1,134 143.3,134 143.3,141.1    148.1,141.1 148.1,140.1 144.6,140.1  "/>
	<path class="st0" d="M163,138c-0.1-0.1-0.2-0.3-0.4-0.4c-0.2-0.1-0.3-0.2-0.6-0.2c0.3-0.1,0.6-0.3,0.8-0.6c0.2-0.2,0.3-0.5,0.3-0.9   c0-0.3-0.1-0.6-0.2-0.9c-0.1-0.2-0.3-0.4-0.5-0.6c-0.2-0.2-0.5-0.3-0.8-0.3c-0.3-0.1-0.6-0.1-1-0.1h-2.4v7.1h2.5c0.4,0,0.7,0,1-0.1   c0.3-0.1,0.6-0.2,0.8-0.4c0.2-0.2,0.4-0.4,0.5-0.6c0.1-0.3,0.2-0.6,0.2-0.9c0-0.2,0-0.4-0.1-0.6C163.2,138.3,163.1,138.1,163,138z    M159.4,135h1.2c0.2,0,0.4,0,0.5,0.1c0.2,0,0.3,0.1,0.4,0.2c0.1,0.1,0.2,0.2,0.3,0.3c0.1,0.1,0.1,0.3,0.1,0.5c0,0.2,0,0.3-0.1,0.4   c-0.1,0.1-0.2,0.2-0.3,0.3c-0.1,0.1-0.3,0.2-0.4,0.2s-0.3,0.1-0.5,0.1h-1.2V135z M162,139.5c-0.1,0.1-0.2,0.3-0.3,0.3   c-0.1,0.1-0.3,0.2-0.4,0.2c-0.2,0.1-0.3,0.1-0.5,0.1h-1.3v-2.2h1.4c0.2,0,0.4,0,0.5,0.1c0.2,0.1,0.3,0.1,0.4,0.2   c0.1,0.1,0.2,0.2,0.2,0.4c0.1,0.1,0.1,0.3,0.1,0.5C162.1,139.2,162,139.3,162,139.5z"/>
	<path class="st0" d="M170,134.9c-0.2-0.3-0.5-0.5-0.8-0.7c-0.3-0.2-0.7-0.3-1.2-0.3c-0.3,0-0.6,0-0.8,0.1c-0.2,0.1-0.5,0.2-0.7,0.3   c-0.2,0.1-0.4,0.3-0.5,0.5c-0.1,0.2-0.3,0.4-0.4,0.6c-0.1,0.2-0.2,0.5-0.2,0.7c0,0.3-0.1,0.5-0.1,0.8v0.9c0,0.4,0.1,0.8,0.2,1.2   c0.1,0.4,0.3,0.7,0.5,1c0.2,0.3,0.5,0.5,0.8,0.7c0.3,0.2,0.7,0.3,1.2,0.3c0.4,0,0.8-0.1,1.2-0.3c0.3-0.2,0.6-0.4,0.8-0.7   c0.2-0.3,0.4-0.6,0.5-1c0.1-0.4,0.2-0.8,0.2-1.2v-0.9c0-0.4-0.1-0.8-0.2-1.2C170.4,135.5,170.2,135.2,170,134.9z M169.5,138   c0,0.3,0,0.5-0.1,0.8s-0.1,0.5-0.2,0.7c-0.1,0.2-0.3,0.4-0.4,0.5c-0.2,0.1-0.4,0.2-0.7,0.2c-0.3,0-0.5-0.1-0.7-0.2   c-0.2-0.1-0.3-0.3-0.4-0.5c-0.1-0.2-0.2-0.4-0.2-0.7c0-0.3-0.1-0.5-0.1-0.8v-0.9c0-0.3,0-0.5,0.1-0.8c0-0.3,0.1-0.5,0.2-0.7   c0.1-0.2,0.3-0.4,0.4-0.5c0.2-0.1,0.4-0.2,0.7-0.2c0.3,0,0.5,0.1,0.7,0.2c0.2,0.1,0.3,0.3,0.4,0.5c0.1,0.2,0.2,0.4,0.2,0.7   c0,0.3,0.1,0.5,0.1,0.8V138z"/>
	<path class="st0" d="M176.7,134l0,4.7c0,0.2,0,0.4-0.1,0.6c-0.1,0.2-0.1,0.3-0.2,0.5c-0.1,0.1-0.2,0.2-0.4,0.3   c-0.2,0.1-0.3,0.1-0.5,0.1c-0.2,0-0.4,0-0.5-0.1c-0.2-0.1-0.3-0.2-0.4-0.3c-0.1-0.1-0.2-0.3-0.2-0.5c-0.1-0.2-0.1-0.4-0.1-0.6   l0-4.7H173l0,4.7c0,0.4,0.1,0.7,0.2,1c0.1,0.3,0.3,0.6,0.5,0.8c0.2,0.2,0.5,0.4,0.8,0.5c0.3,0.1,0.6,0.2,1,0.2c0.4,0,0.7-0.1,1-0.2   c0.3-0.1,0.6-0.3,0.8-0.5c0.2-0.2,0.4-0.5,0.5-0.8c0.1-0.3,0.2-0.6,0.2-1l0-4.7H176.7z"/>
	<path class="st0" d="M184.8,137.8c0.2-0.1,0.3-0.3,0.4-0.4c0.1-0.2,0.2-0.3,0.3-0.5c0.1-0.2,0.1-0.4,0.1-0.7c0-0.4-0.1-0.7-0.2-0.9   c-0.1-0.3-0.3-0.5-0.5-0.7c-0.2-0.2-0.5-0.3-0.8-0.4c-0.3-0.1-0.7-0.1-1.1-0.1h-2.3v7.1h1.2v-2.8h1.2l1.4,2.8h1.3V141l-1.6-3   C184.4,138,184.6,137.9,184.8,137.8z M183.5,137.3c-0.2,0.1-0.4,0.1-0.6,0.1h-1.1V135h1.1c0.2,0,0.4,0,0.6,0.1   c0.2,0.1,0.3,0.1,0.4,0.2c0.1,0.1,0.2,0.2,0.3,0.4c0.1,0.2,0.1,0.3,0.1,0.5c0,0.2,0,0.4-0.1,0.5c-0.1,0.1-0.2,0.3-0.3,0.4   C183.8,137.2,183.7,137.3,183.5,137.3z"/>
	<polygon class="st0" points="191.6,138.9 189.2,134 188,134 188,141.1 189.2,141.1 189.2,136.2 191.6,141.1 192.9,141.1 192.9,134    191.6,134  "/>
	<polygon class="st0" points="196.8,137.9 199.9,137.9 199.9,137 196.8,137 196.8,135 200.3,135 200.3,134 195.6,134 195.6,141.1    200.4,141.1 200.4,140.1 196.8,140.1  "/>
	<rect x="203.5" y="137.5" class="st0" width="4.1" height="0.9"/>
	<path class="st0" d="M212.4,134l-2.4,7.1h1.3l0.5-1.6h2.3l0.5,1.6h1.3l-2.4-7.1H212.4z M212,138.5l0.9-2.8l0.8,2.8H212z"/>
	<path class="st0" d="M220.3,137.5v0.9h1.3l0,1.4c-0.1,0.1-0.1,0.1-0.2,0.2c-0.1,0-0.2,0.1-0.3,0.1c-0.1,0-0.2,0.1-0.3,0.1   s-0.2,0-0.4,0c-0.3,0-0.5-0.1-0.7-0.2c-0.2-0.1-0.4-0.3-0.5-0.5c-0.1-0.2-0.2-0.4-0.3-0.7c-0.1-0.3-0.1-0.5-0.1-0.8v-0.9   c0-0.3,0-0.6,0.1-0.8c0.1-0.3,0.1-0.5,0.3-0.7c0.1-0.2,0.3-0.4,0.5-0.5c0.2-0.1,0.4-0.2,0.7-0.2c0.2,0,0.4,0,0.5,0.1   s0.3,0.1,0.4,0.2s0.2,0.2,0.3,0.4c0.1,0.2,0.1,0.3,0.1,0.5h1.2c0-0.3-0.1-0.6-0.2-0.9c-0.1-0.3-0.3-0.5-0.5-0.7   c-0.2-0.2-0.5-0.3-0.8-0.4c-0.3-0.1-0.6-0.2-1-0.2c-0.4,0-0.8,0.1-1.1,0.3c-0.3,0.2-0.6,0.4-0.8,0.7c-0.2,0.3-0.4,0.6-0.5,1   c-0.1,0.4-0.2,0.8-0.2,1.3v0.9c0,0.4,0.1,0.9,0.2,1.3c0.1,0.4,0.3,0.7,0.5,1c0.2,0.3,0.5,0.5,0.9,0.7c0.3,0.2,0.7,0.2,1.2,0.2   c0.3,0,0.5,0,0.8-0.1c0.2,0,0.5-0.1,0.7-0.2c0.2-0.1,0.4-0.2,0.6-0.3c0.2-0.1,0.3-0.3,0.4-0.4l0-2.7H220.3z"/>
	<path class="st0" d="M227.3,134l-2.4,7.1h1.3l0.5-1.6h2.3l0.5,1.6h1.3l-2.4-7.1H227.3z M227,138.5l0.9-2.8l0.8,2.8H227z"/>
	<polygon class="st0" points="233,135 234.6,135 234.6,140.1 233,140.1 233,141.1 237.4,141.1 237.4,140.1 235.8,140.1 235.8,135    237.4,135 237.4,134 233,134  "/>
	<polygon class="st0" points="243.8,138.9 241.4,134 240.2,134 240.2,141.1 241.4,141.1 241.4,136.2 243.9,141.1 245.1,141.1    245.1,134 243.9,134  "/>
	<path class="st0" d="M259.6,137.8c-0.2-0.2-0.5-0.3-0.7-0.5c-0.3-0.1-0.6-0.2-0.9-0.3c-0.2-0.1-0.4-0.1-0.6-0.2   c-0.2-0.1-0.3-0.1-0.5-0.2c-0.1-0.1-0.3-0.2-0.3-0.3c-0.1-0.1-0.1-0.3-0.1-0.4c0-0.2,0-0.3,0.1-0.4c0.1-0.1,0.2-0.2,0.3-0.3   c0.1-0.1,0.2-0.2,0.4-0.2c0.2,0,0.3-0.1,0.5-0.1c0.2,0,0.4,0,0.6,0.1c0.2,0.1,0.3,0.1,0.4,0.2c0.1,0.1,0.2,0.2,0.3,0.4   c0.1,0.1,0.1,0.3,0.1,0.5h1.2c0-0.3-0.1-0.6-0.2-0.9c-0.1-0.3-0.3-0.5-0.6-0.7c-0.2-0.2-0.5-0.3-0.8-0.4c-0.3-0.1-0.6-0.2-1-0.2   c-0.3,0-0.7,0-1,0.1c-0.3,0.1-0.6,0.2-0.8,0.4c-0.2,0.2-0.4,0.4-0.6,0.6c-0.1,0.2-0.2,0.5-0.2,0.8s0.1,0.6,0.2,0.8   c0.1,0.2,0.3,0.4,0.5,0.6c0.2,0.2,0.5,0.3,0.8,0.4c0.3,0.1,0.6,0.2,0.9,0.3c0.2,0.1,0.4,0.1,0.6,0.2c0.2,0.1,0.3,0.2,0.5,0.3   c0.1,0.1,0.2,0.2,0.3,0.3c0.1,0.1,0.1,0.3,0.1,0.4c0,0.2,0,0.3-0.1,0.4s-0.2,0.2-0.3,0.3c-0.1,0.1-0.3,0.1-0.4,0.2   c-0.2,0-0.3,0.1-0.5,0.1c-0.2,0-0.4,0-0.6-0.1c-0.2-0.1-0.3-0.1-0.5-0.2c-0.1-0.1-0.2-0.2-0.3-0.4c-0.1-0.2-0.1-0.3-0.1-0.6H255   c0,0.2,0,0.5,0.1,0.7c0.1,0.2,0.2,0.4,0.3,0.5c0.1,0.2,0.3,0.3,0.5,0.4c0.2,0.1,0.4,0.2,0.6,0.3c0.2,0.1,0.4,0.1,0.6,0.2   c0.2,0,0.5,0.1,0.7,0.1c0.3,0,0.7,0,1-0.1c0.3-0.1,0.6-0.2,0.8-0.4c0.2-0.2,0.4-0.4,0.6-0.6c0.1-0.2,0.2-0.5,0.2-0.8   c0-0.3-0.1-0.6-0.2-0.8C260,138.2,259.8,138,259.6,137.8z"/>
	<polygon class="st0" points="266.3,137 263.8,137 263.8,134 262.6,134 262.6,141.1 263.8,141.1 263.8,137.9 266.3,137.9    266.3,141.1 267.5,141.1 267.5,134 266.3,134  "/>
	<polygon class="st0" points="271.4,137.9 274.5,137.9 274.5,137 271.4,137 271.4,135 275,135 275,134 270.2,134 270.2,141.1    275,141.1 275,140.1 271.4,140.1  "/>
	<polygon class="st0" points="278.9,134 277.7,134 277.7,141.1 282.5,141.1 282.5,140.1 278.9,140.1  "/>
	<polygon class="st0" points="286.4,134 285.2,134 285.2,141.1 289.9,141.1 289.9,140.1 286.4,140.1  "/>
</g>
</svg>